  0
SECTION
  2
HEADER
  9
$ACADVER
  1
AC1009
  9
$DWGCODEPAGE
  3
ansi_1252
  9
$INSBASE
 10
0.0
 20
0.0
 30
0.0
  9
$EXTMIN
 10
0.0
 20
0.0
 30
0.0
  9
$EXTMAX
 10
420.0
 20
297.0
 30
0.0
  9
$LIMMIN
 10
0.0
 20
0.0
  9
$LIMMAX
 10
420.0
 20
297.0
  9
$ORTHOMODE
 70
     0
  9
$REGENMODE
 70
     1
  9
$FILLMODE
 70
     1
  9
$QTEXTMODE
 70
     0
  9
$MIRRTEXT
 70
     1
  9
$DRAGMODE
 70
     2
  9
$LTSCALE
 40
1.0
  9
$OSMODE
 70
    37
  9
$ATTMODE
 70
     1
  9
$TEXTSIZE
 40
3.5
  9
$TRACEWID
 40
1.0
  9
$TEXTSTYLE
  7
STANDARD
  9
$CLAYER
  8
0
  9
$CELTYPE
  6
BYLAYER
  9
$CECOLOR
 62
    18
  9
$DIMSCALE
 40
1.0
  9
$DIMASZ
 40
2.0
  9
$DIMEXO
 40
1.0
  9
$DIMDLI
 40
3.75
  9
$DIMRND
 40
0.0
  9
$DIMDLE
 40
0.0
  9
$DIMEXE
 40
1.0
  9
$DIMTP
 40
0.0
  9
$DIMTM
 40
0.0
  9
$DIMTXT
 40
2.0
  9
$DIMCEN
 40
2.5
  9
$DIMTSZ
 40
0.0
  9
$DIMTOL
 70
     0
  9
$DIMLIM
 70
     0
  9
$DIMTIH
 70
     1
  9
$DIMTOH
 70
     1
  9
$DIMSE1
 70
     0
  9
$DIMSE2
 70
     0
  9
$DIMTAD
 70
     1
  9
$DIMZIN
 70
     0
  9
$DIMBLK
  1

  9
$DIMASO
 70
     1
  9
$DIMSHO
 70
     1
  9
$DIMPOST
  1

  9
$DIMAPOST
  1

  9
$DIMALT
 70
     0
  9
$DIMALTD
 70
     3
  9
$DIMALTF
 40
0.0393700787401575
  9
$DIMLFAC
 40
1.0
  9
$DIMTOFL
 70
     1
  9
$DIMTVP
 40
0.0
  9
$DIMTIX
 70
     0
  9
$DIMSOXD
 70
     0
  9
$DIMSAH
 70
     0
  9
$DIMBLK1
  1

  9
$DIMBLK2
  1

  9
$DIMSTYLE
  2
STANDARD
  9
$DIMCLRD
 70
    18
  9
$DIMCLRE
 70
    18
  9
$DIMCLRT
 70
    18
  9
$DIMTFAC
 40
1.0
  9
$DIMGAP
 40
1.524
  9
$LUNITS
 70
     2
  9
$LUPREC
 70
     4
  9
$SKETCHINC
 40
1.0
  9
$FILLETRAD
 40
10.0
  9
$AUNITS
 70
     0
  9
$AUPREC
 70
     0
  9
$MENU
  1
.
  9
$ELEVATION
 40
0.0
  9
$PELEVATION
 40
0.0
  9
$THICKNESS
 40
0.0
  9
$LIMCHECK
 70
     0
  9
$CHAMFERA
 40
10.0
  9
$CHAMFERB
 40
10.0
  9
$SKPOLY
 70
     0
  9
$TDCREATE
 40
2456647.643769525
  9
$TDUPDATE
 40
2456647.643769884
  9
$TDINDWG
 40
0.0000000116
  9
$TDUSRTIMER
 40
0.0000000116
  9
$USRTIMER
 70
     1
  9
$ANGBASE
 50
0.0
  9
$ANGDIR
 70
     0
  9
$PDMODE
 70
     0
  9
$PDSIZE
 40
-1.0
  9
$PLINEWID
 40
0.0
  9
$COORDS
 70
     1
  9
$SPLFRAME
 70
     0
  9
$SPLINETYPE
 70
     6
  9
$SPLINESEGS
 70
     8
  9
$ATTDIA
 70
     0
  9
$ATTREQ
 70
     1
  9
$HANDLING
 70
     1
  9
$HANDSEED
  5
1016
  9
$SURFTAB1
 70
     6
  9
$SURFTAB2
 70
     6
  9
$SURFTYPE
 70
     6
  9
$SURFU
 70
     6
  9
$SURFV
 70
     6
  9
$UCSNAME
  2

  9
$UCSORG
 10
0.0
 20
0.0
 30
0.0
  9
$UCSXDIR
 10
1.0
 20
0.0
 30
0.0
  9
$UCSYDIR
 10
0.0
 20
1.0
 30
0.0
  9
$PUCSNAME
  2

  9
$PUCSORG
 10
0.0
 20
0.0
 30
0.0
  9
$PUCSXDIR
 10
1.0
 20
0.0
 30
0.0
  9
$PUCSYDIR
 10
0.0
 20
1.0
 30
0.0
  9
$USERI1
 70
     0
  9
$USERI2
 70
     0
  9
$USERI3
 70
     0
  9
$USERI4
 70
     0
  9
$USERI5
 70
     0
  9
$USERR1
 40
0.0
  9
$USERR2
 40
0.0
  9
$USERR3
 40
0.0
  9
$USERR4
 40
0.0
  9
$USERR5
 40
0.0
  9
$WORLDVIEW
 70
     1
  9
$SHADEDGE
 70
     3
  9
$SHADEDIF
 70
    70
  9
$TILEMODE
 70
     1
  9
$MAXACTVP
 70
    64
  9
$PLIMCHECK
 70
     0
  9
$PEXTMIN
 10
1.000000000000000E+20
 20
1.000000000000000E+20
 30
1.000000000000000E+20
  9
$PEXTMAX
 10
-1.000000000000000E+20
 20
-1.000000000000000E+20
 30
-1.000000000000000E+20
  9
$PLIMMIN
 10
0.0
 20
0.0
  9
$PLIMMAX
 10
420.0
 20
297.0
  9
$UNITMODE
 70
     0
  9
$VISRETAIN
 70
     1
  9
$PLINEGEN
 70
     0
  9
$PSLTSCALE
 70
     1
  0
ENDSEC
  0
SECTION
  2
TABLES
  0
TABLE
  2
VPORT
 70
     1
  0
VPORT
  2
*ACTIVE
 70
     0
 10
0.0
 20
0.0
 11
1.0
 21
1.0
 12
10.42990654205607
 22
4.5
 13
0.0
 23
0.0
 14
0.5
 24
0.5
 15
0.5
 25
0.5
 16
0.0
 26
0.0
 36
1.0
 17
0.0
 27
0.0
 37
0.0
 40
9.0
 41
1.972972972850329
 42
50.0
 43
0.0
 44
0.0
 50
0.0
 51
0.0
 71
     0
 72
   100
 73
     1
 74
     3
 75
     0
 76
     0
 77
     0
 78
     0
  0
ENDTAB
  0
TABLE
  2
LTYPE
 70
    19
  0
LTYPE
  2
CONTINUOUS
 70
     0
  3
Solid line
 72
    65
 73
     0
 40
0.0
  0
LTYPE
  2
BORDER
 70
     0
  3

 72
    65
 73
     6
 40
42.00000000000001
 49
12.0
 49
-6.0
 49
12.0
 49
-5.95
 49
0.1
 49
-5.95
  0
LTYPE
  2
BORDER2
 70
     0
  3

 72
    65
 73
     6
 40
21.0
 49
6.0
 49
-3.0
 49
6.0
 49
-2.95
 49
0.1
 49
-2.95
  0
LTYPE
  2
BORDERX2
 70
     0
  3

 72
    65
 73
     6
 40
84.0
 49
24.0
 49
-12.0
 49
24.0
 49
-11.95
 49
0.1
 49
-11.95
  0
LTYPE
  2
CENTER
 70
     0
  3

 72
    65
 73
     4
 40
50.0
 49
32.0
 49
-6.0
 49
6.0
 49
-6.0
  0
LTYPE
  2
CENTER2
 70
     0
  3

 72
    65
 73
     4
 40
25.0
 49
16.0
 49
-3.0
 49
3.0
 49
-3.0
  0
LTYPE
  2
CENTERX2
 70
     0
  3

 72
    65
 73
     4
 40
100.0
 49
64.0
 49
-12.0
 49
12.0
 49
-12.0
  0
LTYPE
  2
DASHDOT
 70
     0
  3

 72
    65
 73
     4
 40
24.0
 49
12.0
 49
-5.95
 49
0.1
 49
-5.95
  0
LTYPE
  2
DASHDOT2
 70
     0
  3

 72
    65
 73
     4
 40
12.0
 49
6.0
 49
-2.95
 49
0.1
 49
-2.95
  0
LTYPE
  2
DASHDOTX2
 70
     0
  3

 72
    65
 73
     4
 40
48.0
 49
24.0
 49
-11.95
 49
0.1
 49
-11.95
  0
LTYPE
  2
DASHED
 70
     0
  3

 72
    65
 73
     2
 40
18.0
 49
12.0
 49
-6.0
  0
LTYPE
  2
DASHED2
 70
     0
  3

 72
    65
 73
     2
 40
9.0
 49
6.0
 49
-3.0
  0
LTYPE
  2
DASHEDX2
 70
     0
  3

 72
    65
 73
     2
 40
36.0
 49
24.0
 49
-12.0
  0
LTYPE
  2
DIVIDE
 70
     0
  3

 72
    65
 73
     6
 40
29.99999999999999
 49
12.0
 49
-5.9
 49
0.15
 49
-5.9
 49
0.15
 49
-5.9
  0
LTYPE
  2
DIVIDE2
 70
     0
  3

 72
    65
 73
     6
 40
15.0
 49
6.0
 49
-2.9
 49
0.15
 49
-2.9
 49
0.15
 49
-2.9
  0
LTYPE
  2
DIVIDEX2
 70
     0
  3

 72
    65
 73
     6
 40
59.99999999999999
 49
24.0
 49
-11.9
 49
0.15
 49
-11.9
 49
0.15
 49
-11.9
  0
LTYPE
  2
DOT
 70
     0
  3

 72
    65
 73
     2
 40
6.3
 49
0.1
 49
-6.2
  0
LTYPE
  2
DOT2
 70
     0
  3

 72
    65
 73
     2
 40
3.2
 49
0.1
 49
-3.1
  0
LTYPE
  2
DOTX2
 70
     0
  3

 72
    65
 73
     2
 40
12.5
 49
0.1
 49
-12.4
  0
ENDTAB
  0
TABLE
  2
LAYER
 70
     5
  0
LAYER
  2
0
 70
     0
 62
     7
  6
CONTINUOUS
  0
LAYER
  2
SLD-0
 70
     0
 62
     7
  6
CONTINUOUS
  0
LAYER
  2
QUOTE
 70
     0
 62
     8
  6
CONTINUOUS
  0
LAYER
  2
LAVORAZIONI
 70
     0
 62
     1
  6
CONTINUOUS
  0
LAYER
  2
CARTIGLIO
 70
     0
 62
     7
  6
CONTINUOUS
  0
ENDTAB
  0
TABLE
  2
STYLE
 70
    30
  0
STYLE
  2
STANDARD
 70
     0
 40
0.0
 41
1.0
 50
0.0
 71
     0
 42
3.5
  3
txt
  4

  0
STYLE
  2
TEXTSTYLE0
 70
     0
 40
0.0
 41
1.0
 50
0.0
 71
     0
 42
3.5
  3
standard
  4

  0
STYLE
  2
TEXTSTYLE1
 70
     0
 40
0.0
 41
1.0
 50
0.0
 71
     0
 42
3.5
  3
standard
  4

  0
STYLE
  2
TEXTSTYLE2
 70
     0
 40
0.0
 41
1.0
 50
0.0
 71
     0
 42
3.5
  3
standard
  4

  0
STYLE
  2
TEXTSTYLE3
 70
     0
 40
0.0
 41
1.0
 50
0.0
 71
     0
 42
3.5
  3
standard
  4

  0
STYLE
  2
TEXTSTYLE4
 70
     0
 40
0.0
 41
1.0
 50
0.0
 71
     0
 42
3.5
  3
standard
  4

  0
STYLE
  2
TEXTSTYLE5
 70
     0
 40
0.0
 41
1.0
 50
0.0
 71
     0
 42
3.5
  3
standard
  4

  0
STYLE
  2
TEXTSTYLE6
 70
     0
 40
0.0
 41
1.0
 50
0.0
 71
     0
 42
3.5
  3
standard
  4

  0
STYLE
  2
TEXTSTYLE7
 70
     0
 40
0.0
 41
1.0
 50
0.0
 71
     0
 42
3.5
  3
standard
  4

  0
STYLE
  2
TEXTSTYLE8
 70
     0
 40
0.0
 41
1.0
 50
0.0
 71
     0
 42
3.5
  3
standard
  4

  0
STYLE
  2
TEXTSTYLE9
 70
     0
 40
0.0
 41
1.0
 50
0.0
 71
     0
 42
3.5
  3
standard
  4

  0
STYLE
  2
TEXTSTYLE10
 70
     0
 40
0.0
 41
1.0
 50
0.0
 71
     0
 42
3.5
  3
standard
  4

  0
STYLE
  2
TEXTSTYLE11
 70
     0
 40
0.0
 41
1.0
 50
0.0
 71
     0
 42
3.5
  3
standard
  4

  0
STYLE
  2
TEXTSTYLE12
 70
     0
 40
0.0
 41
1.0
 50
0.0
 71
     0
 42
3.5
  3
standard
  4

  0
STYLE
  2
TEXTSTYLE13
 70
     0
 40
0.0
 41
1.0
 50
0.0
 71
     0
 42
3.5
  3
standard
  4

  0
STYLE
  2
TEXTSTYLE14
 70
     0
 40
0.0
 41
1.0
 50
0.0
 71
     0
 42
3.5
  3
standard
  4

  0
STYLE
  2
TEXTSTYLE15
 70
     0
 40
0.0
 41
1.0
 50
0.0
 71
     0
 42
3.5
  3
standard
  4

  0
STYLE
  2
TEXTSTYLE16
 70
     0
 40
0.0
 41
1.0
 50
0.0
 71
     0
 42
3.5
  3
standard
  4

  0
STYLE
  2
TEXTSTYLE17
 70
     0
 40
0.0
 41
1.0
 50
0.0
 71
     0
 42
3.5
  3
standard
  4

  0
STYLE
  2
TEXTSTYLE18
 70
     0
 40
0.0
 41
1.0
 50
0.0
 71
     0
 42
3.5
  3
standard
  4

  0
STYLE
  2
TEXTSTYLE19
 70
     0
 40
0.0
 41
1.0
 50
0.0
 71
     0
 42
3.5
  3
standard
  4

  0
STYLE
  2
TEXTSTYLE20
 70
     0
 40
0.0
 41
1.0
 50
0.0
 71
     0
 42
3.5
  3
standard
  4

  0
STYLE
  2
TEXTSTYLE21
 70
     0
 40
0.0
 41
1.0
 50
0.0
 71
     0
 42
3.5
  3
standard
  4

  0
STYLE
  2
TEXTSTYLE22
 70
     0
 40
0.0
 41
1.0
 50
0.0
 71
     0
 42
3.5
  3
standard
  4

  0
STYLE
  2
TEXTSTYLE23
 70
     0
 40
0.0
 41
1.0
 50
0.0
 71
     0
 42
3.5
  3
standard
  4

  0
STYLE
  2
TEXTSTYLE24
 70
     0
 40
0.0
 41
1.0
 50
0.0
 71
     0
 42
3.5
  3
standard
  4

  0
STYLE
  2
TEXTSTYLE25
 70
     0
 40
0.0
 41
1.0
 50
0.0
 71
     0
 42
3.5
  3
standard
  4

  0
STYLE
  2
TEXTSTYLE26
 70
     0
 40
0.0
 41
1.0
 50
0.0
 71
     0
 42
3.5
  3
standard
  4

  0
STYLE
  2
TEXTSTYLE27
 70
     0
 40
0.0
 41
1.0
 50
0.0
 71
     0
 42
3.5
  3
standard
  4

  0
STYLE
  2
TEXTSTYLE28
 70
     0
 40
0.0
 41
1.0
 50
0.0
 71
     0
 42
3.5
  3
standard
  4

  0
ENDTAB
  0
TABLE
  2
VIEW
 70
     0
  0
ENDTAB
  0
TABLE
  2
UCS
 70
     0
  0
ENDTAB
  0
TABLE
  2
APPID
 70
     2
  0
APPID
  2
ACAD
 70
     0
  0
APPID
  2
QCAD
 70
     0
  0
ENDTAB
  0
TABLE
  2
DIMSTYLE
 70
     2
  0
DIMSTYLE
  2
STANDARD
 70
     0
  3

  4

  5

  6

  7

 40
1.0
 41
0.18
 42
0.0625
 43
0.38
 44
0.18
 45
0.0
 46
0.0
 47
0.0
 48
0.0
140
0.18
141
0.09
142
0.0
143
25.4
144
1.0
145
0.0
146
1.0
147
0.09
 71
     0
 72
     0
 73
     1
 74
     1
 75
     0
 76
     0
 77
     0
 78
     0
170
     0
171
     2
172
     0
173
     0
174
     0
175
     0
176
     0
177
     0
178
     0
  0
DIMSTYLE
  2
QCADDIMSTYLE
 70
     0
  3

  4

  5

  6

  7

 40
1.0
 41
2.0
 42
1.0
 43
0.38
 44
1.0
 45
0.0
 46
0.0
 47
0.0
 48
0.0
140
2.0
141
0.09
142
0.0
143
25.4
144
1.0
145
0.0
146
1.0
147
1.524
 71
     0
 72
     0
 73
     0
 74
     1
 75
     0
 76
     0
 77
     1
 78
     0
170
     0
171
     2
172
     0
173
     0
174
     0
175
     0
176
     0
177
     0
178
     0
  0
ENDTAB
  0
ENDSEC
  0
SECTION
  2
BLOCKS
  0
BLOCK
  8
0
  2
$MODEL_SPACE
 70
     0
 10
0.0
 20
0.0
 30
0.0
  3
$MODEL_SPACE
  1

  0
ENDBLK
  5
F24
  8
0
  0
BLOCK
 67
     1
  8
0
  2
$PAPER_SPACE
 70
     0
 10
0.0
 20
0.0
 30
0.0
  3
$PAPER_SPACE
  1

  0
ENDBLK
  5
F20
 67
     1
  8
0
  0
BLOCK
  8
0
  2
SW_NOTE_10
 70
     0
 10
0.0
 20
0.0
 30
0.0
  3
SW_NOTE_10
  1

  0
TEXT
  5
7E2
  8
LAVORAZIONI
  6
CONTINUOUS
 62
     0
 10
-20.23350316230275
 20
-1.790176392751518
 30
0.0
 40
3.5
  1
Air Vents
  7
TEXTSTYLE12
  0
ENDBLK
  5
FB3
  8
0
  0
BLOCK
  8
0
  2
SW_NOTE_11
 70
     0
 10
0.0
 20
0.0
 30
0.0
  3
SW_NOTE_11
  1

  0
TEXT
  5
7E3
  8
LAVORAZIONI
  6
CONTINUOUS
 62
     0
 10
0.0992119275824437
 20
-2.077887153715473
 30
0.0
 40
3.5
  1
Snap-on closing
  7
TEXTSTYLE13
  0
ENDBLK
  5
FB6
  8
0
  0
BLOCK
  8
0
  2
SW_NOTE_12
 70
     0
 10
0.0
 20
0.0
 30
0.0
  3
SW_NOTE_12
  1

  0
TEXT
  5
7E4
  8
LAVORAZIONI
  6
CONTINUOUS
 62
     0
 10
0.0444592639500812
 20
-1.908380098819844
 30
0.0
 40
3.5
  1
Guidelight
  7
TEXTSTYLE14
  0
ENDBLK
  5
FB9
  8
0
  0
BLOCK
  8
0
  2
_D_2
 70
     0
 10
0.0
 20
0.0
 30
0.0
  3
_D_2
  1

  0
SOLID
  5
7E5
  8
CARTIGLIO
 10
339.1745621810466
 20
277.044297343379
 30
0.0
 11
338.6745621810466
 21
275.044297343379
 31
0.0
 12
339.6745621810466
 22
275.044297343379
 32
0.0
 13
339.6745621810466
 23
275.044297343379
 33
0.0
  0
SOLID
  5
7E6
  8
CARTIGLIO
 10
339.1745621810466
 20
256.144297343379
 30
0.0
 11
339.6745621810466
 21
258.144297343379
 31
0.0
 12
338.6745621810466
 22
258.144297343379
 32
0.0
 13
338.6745621810466
 23
258.144297343379
 33
0.0
  0
LINE
  5
7E7
  8
CARTIGLIO
 10
329.6743113823226
 20
277.044297343379
 30
0.0
 11
340.1745621810466
 21
277.044297343379
 31
0.0
  0
LINE
  5
7E8
  8
CARTIGLIO
 10
329.6743113823226
 20
256.144297343379
 30
0.0
 11
340.1745621810466
 21
256.144297343379
 31
0.0
  0
LINE
  5
7E9
  8
CARTIGLIO
 10
339.1745621810466
 20
277.044297343379
 30
0.0
 11
339.1745621810466
 21
256.144297343379
 31
0.0
  0
TEXT
  5
7EA
  8
CARTIGLIO
  6
CONTINUOUS
 10
338.596426643295
 20
261.4753341729022
 30
29.08030430597775
 40
2.0
  1
20,9
 50
90.0000000000004
  7
TEXTSTYLE15
  0
ENDBLK
  5
FBC
  8
0
  0
BLOCK
  8
0
  2
_D_3
 70
     0
 10
0.0
 20
0.0
 30
0.0
  3
_D_3
  1

  0
SOLID
  5
7EB
  8
CARTIGLIO
 10
344.2064894686938
 20
253.044297343379
 30
0.0
 11
344.7064894686938
 21
255.044297343379
 31
0.0
 12
343.7064894686938
 22
255.044297343379
 32
0.0
 13
343.7064894686938
 23
255.044297343379
 33
0.0
  0
SOLID
  5
7EC
  8
CARTIGLIO
 10
344.2064894686938
 20
279.544297343379
 30
0.0
 11
343.7064894686938
 21
277.544297343379
 31
0.0
 12
344.7064894686938
 22
277.544297343379
 32
0.0
 13
344.7064894686938
 23
277.544297343379
 33
0.0
  0
LINE
  5
7ED
  8
CARTIGLIO
 10
320.6274358008204
 20
253.044297343379
 30
0.0
 11
345.2064894686938
 21
253.044297343379
 31
0.0
  0
LINE
  5
7EE
  8
CARTIGLIO
 10
324.8524860018261
 20
279.544297343379
 30
0.0
 11
345.2064894686938
 21
279.544297343379
 31
0.0
  0
LINE
  5
7EF
  8
CARTIGLIO
 10
344.2064894686938
 20
253.044297343379
 30
0.0
 11
344.2064894686938
 21
279.544297343379
 31
0.0
  0
TEXT
  5
7F0
  8
CARTIGLIO
  6
CONTINUOUS
 10
343.6283539309422
 20
261.4753341729023
 30
29.08030430597775
 40
2.0
  1
26,5
 50
90.0
  7
TEXTSTYLE16
  0
ENDBLK
  5
FBF
  8
0
  0
BLOCK
  8
0
  2
SW_NOTE_13
 70
     0
 10
0.0
 20
0.0
 30
0.0
  3
SW_NOTE_13
  1

  0
TEXT
  5
7F1
  8
CARTIGLIO
  6
CONTINUOUS
 62
     0
 10
-0.2039496527777656
 20
1.070755086071998
 30
0.0
 40
3.704166666666666
  1
SECTION
  7
TEXTSTYLE17
  0
TEXT
  5
7F2
  8
CARTIGLIO
  6
CONTINUOUS
 62
     0
 10
22.27032229370542
 20
1.070755086071998
 30
0.0
 40
3.704166666666666
  1
A-A
  7
TEXTSTYLE18
  0
ENDBLK
  5
FC2
  8
0
  0
BLOCK
  8
0
  2
SW_NOTE_14
 70
     0
 10
0.0
 20
0.0
 30
0.0
  3
SW_NOTE_14
  1

  0
TEXT
  5
7F3
  8
LAVORAZIONI
  6
CONTINUOUS
 62
     0
 10
-12.92934391324432
 20
-1.648786497359664
 30
0.0
 40
3.5
  1
GPIO
  7
TEXTSTYLE19
  0
ENDBLK
  5
FC5
  8
0
  0
BLOCK
  8
0
  2
SW_NOTE_0
 70
     0
 10
0.0
 20
0.0
 30
0.0
  3
SW_NOTE_0
  1

  0
TEXT
  5
7F4
  8
CARTIGLIO
  6
CONTINUOUS
 62
     0
 10
-6.825105485232098
 20
0.5311871227364149
 30
0.0
 40
2.2
  1
Subject to technical modification without prior notice.
  7
TEXTSTYLE20
  0
TEXT
  5
7F5
  8
CARTIGLIO
  6
CONTINUOUS
 62
     0
 10
-21.44479260701526
 20
-3.087332164819991
 30
0.0
 40
2.2
  1
Tipographical and other errors do not justify any claim for damages.
  7
TEXTSTYLE21
  0
TEXT
  5
7F6
  8
CARTIGLIO
  6
CONTINUOUS
 62
     0
 10
-16.21141498181891
 20
-6.7058514523764
 30
0.0
 40
2.2
  1
All dimensions should be verified using an actual moulded part.
  7
TEXTSTYLE22
  0
ENDBLK
  5
FC8
  8
0
  0
BLOCK
  8
0
  2
SW_NOTE_1
 70
     0
 10
0.0
 20
0.0
 30
0.0
  3
SW_NOTE_1
  1

  0
TEXT
  5
7F7
  8
CARTIGLIO
  6
CONTINUOUS
 62
     0
 10
-6.666742013261015
 20
0.482897384305836
 30
0.0
 40
2.0
  1
This document contains proprietary information of TEKO S.p.a.
  7
TEXTSTYLE23
  0
TEXT
  5
7F8
  8
CARTIGLIO
  6
CONTINUOUS
 62
     0
 10
85.15664910616246
 20
0.482897384305836
 30
0.0
 40
2.0
  1
and is tendered
  7
TEXTSTYLE24
  0
TEXT
  5
7F9
  8
CARTIGLIO
  6
CONTINUOUS
 62
     0
 10
-10.46512690249375
 20
-2.10043590680754
 30
0.0
 40
2.0
  1
subject to the conditions that the information be retained in confidence not be
  7
TEXTSTYLE25
  0
TEXT
  5
7FA
  8
CARTIGLIO
  6
CONTINUOUS
 62
     0
 10
-2.508784291218221
 20
-4.683769197920917
 30
0.0
 40
2.0
  1
reproducer or copiedand not be used or incorporated in any product.
  7
TEXTSTYLE26
  0
ENDBLK
  5
FCB
  8
0
  0
BLOCK
  8
0
  2
_D
 70
     0
 10
0.0
 20
0.0
 30
0.0
  3
_D
  1

  0
SOLID
  5
7FB
  8
CARTIGLIO
 10
228.5005602193183
 20
107.4892493214149
 30
0.0
 11
230.5005602193183
 21
106.9892493214149
 31
0.0
 12
230.5005602193183
 22
107.9892493214149
 32
0.0
 13
230.5005602193183
 23
107.9892493214149
 33
0.0
  0
SOLID
  5
7FC
  8
CARTIGLIO
 10
329.1743113823226
 20
107.4892493214149
 30
0.0
 11
327.1743113823226
 21
107.9892493214149
 31
0.0
 12
327.1743113823226
 22
106.9892493214149
 32
0.0
 13
327.1743113823226
 23
106.9892493214149
 33
0.0
  0
LINE
  5
7FD
  8
CARTIGLIO
 10
228.5005602193183
 20
126.8363757016456
 30
0.0
 11
228.5005602193183
 21
106.4892493214149
 31
0.0
  0
LINE
  5
7FE
  8
CARTIGLIO
 10
329.1743113823226
 20
126.8363757016456
 30
0.0
 11
329.1743113823226
 21
106.4892493214149
 31
0.0
  0
LINE
  5
7FF
  8
CARTIGLIO
 10
228.5005602193183
 20
107.4892493214149
 30
0.0
 11
329.1743113823226
 21
107.4892493214149
 31
0.0
  0
TEXT
  5
800
  8
CARTIGLIO
  6
CONTINUOUS
 10
273.9118404310997
 20
108.0673848591665
 30
-7.373323989056478
 40
2.0
  1
100,7
  7
TEXTSTYLE27
  0
ENDBLK
  5
FCE
  8
0
  0
BLOCK
  8
0
  2
_D_1
 70
     0
 10
0.0
 20
0.0
 30
0.0
  3
_D_1
  1

  0
SOLID
  5
801
  8
CARTIGLIO
 10
345.1745621810467
 20
191.0822512831477
 30
0.0
 11
344.6745621810467
 21
189.0822512831477
 31
0.0
 12
345.6745621810467
 22
189.0822512831477
 32
0.0
 13
345.6745621810467
 23
189.0822512831477
 33
0.0
  0
SOLID
  5
802
  8
CARTIGLIO
 10
345.1745621810467
 20
117.4895001201435
 30
0.0
 11
345.6745621810467
 21
119.4895001201435
 31
0.0
 12
344.6745621810467
 22
119.4895001201435
 32
0.0
 13
344.6745621810467
 23
119.4895001201435
 33
0.0
  0
LINE
  5
803
  8
CARTIGLIO
 10
319.8274358008205
 20
191.0822512831477
 30
0.0
 11
346.1745621810467
 21
191.0822512831477
 31
0.0
  0
LINE
  5
804
  8
CARTIGLIO
 10
319.8274358008205
 20
117.4895001201435
 30
0.0
 11
346.1745621810467
 21
117.4895001201435
 31
0.0
  0
LINE
  5
805
  8
CARTIGLIO
 10
345.1745621810467
 20
191.0822512831477
 30
0.0
 11
345.1745621810467
 21
117.4895001201435
 31
0.0
  0
TEXT
  5
806
  8
CARTIGLIO
  6
CONTINUOUS
 10
344.596426643295
 20
150.4098835541276
 30
-7.373323989056431
 40
2.0
  1
73,6
 50
90.0000000000004
  7
TEXTSTYLE28
  0
ENDBLK
  5
FD1
  8
0
  0
BLOCK
  8
0
  2
SW_NOTE_2
 70
     0
 10
0.0
 20
0.0
 30
0.0
  3
SW_NOTE_2
  1

  0
TEXT
  5
7D4
  8
LAVORAZIONI
  6
CONTINUOUS
 62
     0
 10
-0.1252502187075911
 20
-1.711161138990472
 30
0.0
 40
3.5
  1
HDMI
  7
TEXTSTYLE0
  0
ENDBLK
  5
FD4
  8
0
  0
BLOCK
  8
0
  2
_DOT
 70
     0
 10
0.0
 20
0.0
 30
0.0
  3
_DOT
  1

  0
POLYLINE
  5
7D5
  8
0
  6
BYBLOCK
 62
     0
 66
     1
 10
0.0
 20
0.0
 30
0.0
 70
     1
  0
VERTEX
  5
1011
  8
0
  6
BYBLOCK
 62
     0
 10
-0.25
 20
0.0
 30
0.0
 42
1.0
  0
VERTEX
  5
1012
  8
0
  6
BYBLOCK
 62
     0
 10
0.25
 20
0.0
 30
0.0
 42
1.0
  0
SEQEND
  5
1015
  8
0
  6
BYBLOCK
 62
     0
  0
LINE
  5
7D6
  8
0
  6
BYBLOCK
 62
     0
 10
-0.5
 20
0.0
 30
0.0
 11
-1.0
 21
0.0
 31
0.0
  0
ENDBLK
  5
FD7
  8
0
  0
BLOCK
  8
0
  2
SW_NOTE_3
 70
     0
 10
0.0
 20
0.0
 30
0.0
  3
SW_NOTE_3
  1

  0
TEXT
  5
7D7
  8
LAVORAZIONI
  6
CONTINUOUS
 62
     0
 10
0.0406137685893264
 20
-1.866188237991559
 30
0.0
 40
3.5
  1
3,5 mm
  7
TEXTSTYLE1
  0
TEXT
  5
7D8
  8
LAVORAZIONI
  6
CONTINUOUS
 62
     0
 10
0.3739471019226598
 20
-6.55854943511549
 30
0.0
 40
3.5
  1
Audio Jack
  7
TEXTSTYLE2
  0
ENDBLK
  5
FDA
  8
0
  0
BLOCK
  8
0
  2
SW_NOTE_4
 70
     0
 10
0.0
 20
0.0
 30
0.0
  3
SW_NOTE_4
  1

  0
TEXT
  5
7D9
  8
LAVORAZIONI
  6
CONTINUOUS
 62
     0
 10
-12.55843420090005
 20
2.73726409440873
 30
0.0
 40
3.5
  1
RCA
  7
TEXTSTYLE3
  0
TEXT
  5
7DA
  8
LAVORAZIONI
  6
CONTINUOUS
 62
     0
 10
-13.72232249018275
 20
-1.955097102715202
 30
0.0
 40
3.5
  1
Video
  7
TEXTSTYLE4
  0
ENDBLK
  5
FDD
  8
0
  0
BLOCK
  8
0
  2
SW_NOTE_5
 70
     0
 10
0.0
 20
0.0
 30
0.0
  3
SW_NOTE_5
  1

  0
TEXT
  5
7DB
  8
LAVORAZIONI
  6
CONTINUOUS
 62
     0
 10
-12.02524565923967
 20
2.794853116918187
 30
0.0
 40
3.5
  1
RJ45
  7
TEXTSTYLE5
  0
TEXT
  5
7DC
  8
LAVORAZIONI
  6
CONTINUOUS
 62
     0
 10
-10.38340557757772
 20
-1.730841413539072
 30
0.0
 40
3.5
  1
LAN
  7
TEXTSTYLE6
  0
ENDBLK
  5
FE0
  8
0
  0
BLOCK
  8
0
  2
SW_NOTE_6
 70
     0
 10
0.0
 20
0.0
 30
0.0
  3
SW_NOTE_6
  1

  0
TEXT
  5
7DD
  8
LAVORAZIONI
  6
CONTINUOUS
 62
     0
 10
-17.01262513066889
 20
-1.688856411999503
 30
0.0
 40
3.5
  1
2 X USB
  7
TEXTSTYLE7
  0
ENDBLK
  5
FE3
  8
0
  0
BLOCK
  8
0
  2
SW_NOTE_7
 70
     0
 10
0.0
 20
0.0
 30
0.0
  3
SW_NOTE_7
  1

  0
TEXT
  5
7DE
  8
LAVORAZIONI
  6
CONTINUOUS
 62
     0
 10
-21.6485844845406
 20
-1.684633679885053
 30
0.0
 40
3.5
  1
SD CARD
  7
TEXTSTYLE8
  0
ENDBLK
  5
FE6
  8
0
  0
BLOCK
  8
0
  2
SW_NOTE_8
 70
     0
 10
0.0
 20
0.0
 30
0.0
  3
SW_NOTE_8
  1

  0
TEXT
  5
7DF
  8
LAVORAZIONI
  6
CONTINUOUS
 62
     0
 10
-27.94524178975189
 20
2.829500898745344
 30
0.0
 40
3.5
  1
MICRO USB
  7
TEXTSTYLE9
  0
TEXT
  5
7E0
  8
LAVORAZIONI
  6
CONTINUOUS
 62
     0
 10
-21.96642239961388
 20
-1.696193631711914
 30
0.0
 40
3.5
  1
POWER
  7
TEXTSTYLE10
  0
ENDBLK
  5
FE9
  8
0
  0
BLOCK
  8
0
  2
SW_NOTE_9
 70
     0
 10
0.0
 20
0.0
 30
0.0
  3
SW_NOTE_9
  1

  0
TEXT
  5
7E1
  8
LAVORAZIONI
  6
CONTINUOUS
 62
     0
 10
-0.0784714576712765
 20
-1.790975479379533
 30
0.0
 40
3.5
  1
Feet
  7
TEXTSTYLE11
  0
ENDBLK
  5
FEC
  8
0
  0
ENDSEC
  0
SECTION
  2
ENTITIES
  0
ARC
  5
ED0
  8
0
  6
CONTINUOUS
 10
40.0
 20
-26.45
 30
0.0
 40
10.35
 50
270.0
 51
0.0
  0
ARC
  5
ED1
  8
0
  6
CONTINUOUS
 10
-40.0
 20
-26.45
 30
0.0
 40
10.35
 50
180.0
 51
270.0
  0
ARC
  5
ED2
  8
0
  6
CONTINUOUS
 10
-40.0
 20
26.45
 30
0.0
 40
10.35
 50
90.0000000000005
 51
180.0
  0
ARC
  5
ED3
  8
0
  6
CONTINUOUS
 10
40.0
 20
26.45
 30
0.0
 40
10.35
 50
0.0
 51
90.00000000000082
  0
LINE
  5
ED4
  8
0
  6
CONTINUOUS
 10
-50.35
 20
26.45
 30
0.0
 11
-50.35
 21
-26.45
 31
0.0
  0
LINE
  5
ED5
  8
0
  6
CONTINUOUS
 10
-40.0
 20
-36.8
 30
0.0
 11
40.0
 21
-36.8
 31
0.0
  0
LINE
  5
ED6
  8
0
  6
CONTINUOUS
 10
50.35
 20
-26.45
 30
0.0
 11
50.35
 21
26.45
 31
0.0
  0
LINE
  5
ED7
  8
0
  6
CONTINUOUS
 10
40.0
 20
36.8
 30
0.0
 11
-40.0
 21
36.8
 31
0.0
  0
LINE
  5
EF4
  8
0
  6
CONTINUOUS
 10
42.0
 20
-22.0
 30
0.0
 11
42.0
 21
28.5
 31
0.0
  0
LINE
  5
EF5
  8
0
  6
CONTINUOUS
 10
42.0
 20
28.5
 30
0.0
 11
-28.0
 21
28.5
 31
0.0
  0
LINE
  5
EF6
  8
0
 10
42.0
 20
-22.0
 30
0.0
 11
-28.0
 21
-22.0
 31
0.0
  0
LINE
  5
EF7
  8
0
 10
-28.0
 20
-22.0
 30
0.0
 11
-28.0
 21
28.5
 31
0.0
  0
LINE
  5
F00
  8
0
 10
-22.0
 20
-27.0
 30
0.0
 11
-15.0
 21
-27.0
 31
0.0
  0
LINE
  5
F01
  8
0
 10
-15.0
 20
-27.0
 30
0.0
 11
-15.0
 21
-23.0
 31
0.0
  0
LINE
  5
F02
  8
0
 10
-15.0
 20
-23.0
 30
0.0
 11
-22.0
 21
-23.0
 31
0.0
  0
LINE
  5
F03
  8
0
 10
-22.0
 20
-23.0
 30
0.0
 11
-22.0
 21
-27.0
 31
0.0
  0
ENDSEC
  0
EOF
